<?xml version="1.0" encoding="utf-8"?>
<!-- Generator: Adobe Illustrator 25.4.0, SVG Export Plug-In . SVG Version: 6.00 Build 0)  -->
<svg version="1.1" id="Capa_1" xmlns="http://www.w3.org/2000/svg" xmlns:xlink="http://www.w3.org/1999/xlink" x="0px" y="0px"
	 viewBox="0 0 782.6 402.4" style="enable-background:new 0 0 782.6 402.4;" xml:space="preserve">
<style type="text/css">
	.st0{fill:#171D2B;}
	.st1{fill:#FFFFFF;}
	.st2{fill:#31CF6E;}
</style>
<g>
	<g>
		<path class="st1" d="M65.6,383.1L18,353.6v29.6H0v-81.3h63.7c22.8,0,32.1,4.9,32.1,24.4v5.6c0,18.8-10.1,23.7-32.3,23.7H49.1
			l47.7,27.5H65.6z M77.6,327.2c0-8.7-3.2-10.1-15.1-10.1H18v24.8h44.5c11.7,0,15.1-1.4,15.1-10.3V327.2z"/>
		<path class="st1" d="M134.8,383.1c-24,0-31-7.4-31-27.9v-36.7h17.9v36.2c0,11,3.7,13.2,14.5,13.2h18.6c11.6,0,14.5-2.3,14.5-13.2
			v-36.2H187v36.7c0,20.5-7,27.9-31.2,27.9H134.8z"/>
		<path class="st1" d="M257,338.7l-19.2,39.8c-1.9,3.9-5.1,6.4-9.9,6.4c-5.4,0-7.9-2.5-9.5-6.4l-25.9-60h18l18.6,43.5l18.5-38.6
			c2.1-4.3,4.5-6.7,9.8-6.7c5,0,7.6,2.1,9.7,6.7l17.5,38.6l19.5-43.5h17.6l-27.1,60c-1.7,3.7-5,6.4-9.8,6.4c-4.6,0-7.9-2.7-9.7-6.4
			L257,338.7z"/>
		<path class="st1" d="M340.2,383.1c-18.6,0-23.6-6.6-23.6-17V360c0-10.8,4.5-17,22.4-17h47.8v-1.4c0-8.2-3.1-10.4-11-10.4h-17.6
			v-12.6h17.6c20.6,0,28.7,7.4,28.7,23.8v15.7c0,18.7-6.6,25-29.4,25H340.2z M386.8,353.9h-45.9c-4.2,0-6.7,1.4-6.7,6.6v4.4
			c0,4.5,2.7,6.1,7.3,6.1h33.4c8.3,0,11.9-1.9,11.9-11.6V353.9z"/>
		<path class="st1" d="M431.9,352.1c0,7.2,2.9,9.5,10.1,9.5h39.7v-43.2H499v63.4c0,14.4-6.8,20.5-22.9,20.5h-25.9v-14.5h24.3
			c4.9,0,7.2-1.5,7.2-6.9v-5.2h-40.8c-19.3,0-26.6-7.3-26.6-22.9v-34.3h17.5V352.1z"/>
		<path class="st2" d="M540.1,383.1v-65.7H506v-15.6h86.4v15.6h-34.1v65.7H540.1z"/>
		<path class="st2" d="M629.8,383.1c-24,0-31-7.4-31-27.9v-25.5c0-20.5,7-27.9,31-27.9h20v15.4h-20c-10.5,0-13,3.1-13,12.5v5.5h69.3
			v14.4h-69.3v5.7c0,9.8,2.4,12.4,13,12.4h56.7v15.4H629.8z"/>
		<path class="st2" d="M726.3,383.1c-24,0-31-7.4-31-27.9v-25.5c0-20.5,7-27.9,31-27.9h56.4v15.6h-55.5c-11.1,0-13.8,3.2-13.8,13.2
			v23.8c0,10.1,2.7,13.1,13.9,13.1h55.4v15.5H726.3z"/>
	</g>
	<g>
		<path class="st2" d="M619.5,80.2c-22.2-22.8-44.9-45.1-67.5-67.6c-8.2-8.1-18.2-12-29.7-12.4C510.9,0.3,500.8,4,492.6,12
			c-9.7,9.4-18.9,19.4-28.9,28.6c-0.9,0.9-1.7,1.7-2.3,2.5c-1.1-0.2-2.2-0.2-3.3-0.2c-12.5,0-22.6,10.1-22.6,22.6
			s10.1,22.6,22.6,22.6c12.5,0,22.6-10.1,22.6-22.6c0-1.4-0.1-2.7-0.4-4.1c0.8-0.7,1.7-1.5,2.5-2.5c7.8-8.7,16.3-16.8,24.8-24.9
			c10.5-10,18.3-10.2,28.4-0.2C557,54.5,577.7,75.1,598.2,96c10,10.1,10,17.5,0.2,27.5c-20.8,21.2-41.8,42.1-62.9,62.9
			c-9.3,9.2-17.3,9.2-26.8,0.3c-10.1-9.5-19.6-19.7-29.7-29.3c-5.3-5-4.8-8.9,0.2-13.7c9.8-9.4,18.9-19.4,28.8-28.6
			c7.9-7.4,2.6-11.8-2.5-17.1c-5.1-5.2-9.4-8.8-16.3-1.8c-29.8,30.2-59.8,60.2-90.1,90.1c-7.1,7-3,11.2,2,16.2
			c5.2,5.2,9.8,10.2,17.1,2.3c9.2-9.9,19.2-19.1,28.6-28.8c4.9-5.1,8.7-5.2,13.7,0c10.1,10.6,20.5,20.9,31.1,31.1
			c17.6,16.9,42.8,17.1,60.2,0.1c22.8-22.2,45.3-44.7,67.5-67.5C636.1,122.6,636.1,97.2,619.5,80.2z M458.1,74.9
			c-5.2,0-9.4-4.2-9.4-9.4s4.2-9.4,9.4-9.4s9.4,4.2,9.4,9.4S463.3,74.9,458.1,74.9z"/>
		<path class="st2" d="M367.5,131.1c-12.5,0-22.6,10.1-22.6,22.6c0,1.8,0.2,3.5,0.6,5.1c-0.3,0.2-0.5,0.5-0.8,0.8
			c-8.8,9.3-17.9,18.3-27.2,27.1c-9.2,8.6-17.3,8.9-26,0.3c-21.7-21.3-43.2-42.7-64.4-64.4c-8.9-9.1-8.7-16.6,0.3-25.8
			c21-21.4,42.2-42.6,63.6-63.7c8.9-8.8,17-8.9,26-0.5c10.4,9.7,20.2,20.2,30.5,30.1c4.7,4.6,4.8,8.3,0,12.9
			c-10,9.7-19.5,19.9-29.6,29.4c-7.3,6.9-2.8,11.3,2.3,16.2c4.8,4.7,8.9,10,16.2,2.6c30.1-30.4,60.4-60.7,90.8-90.8
			c7.3-7.3,2-11.3-2.7-16.2c-4.9-5.1-9.3-9.5-16.2-2.2c-9.6,10.1-19.7,19.6-29.4,29.6c-4.6,4.8-8.3,4.6-12.9-0.1
			c-10.4-10.8-21-21.5-31.9-31.8C316.8-4,291.8-4.2,274.7,12.3c-23.1,22.4-45.9,45.2-68.3,68.3c-16.1,16.6-16.1,42,0,58.5
			c22.4,23.1,45.4,45.7,68.2,68.4c8.2,8.1,18.3,11.8,28.9,12.1c11.5-0.1,21.2-3.4,28.9-10.7c10.7-10,20.6-20.7,31.2-30.9
			c0.6-0.6,1.1-1.2,1.6-1.7c0.7,0.1,1.5,0.1,2.2,0.1c12.5,0,22.6-10.1,22.6-22.6S380,131.1,367.5,131.1z M367.5,163.2
			c-5.2,0-9.4-4.2-9.4-9.4s4.2-9.4,9.4-9.4s9.4,4.2,9.4,9.4S372.7,163.2,367.5,163.2z"/>
	</g>
</g>
</svg>
